<svg id="visual" viewBox="0 0 960 540" width="960" height="540" xmlns="http://www.w3.org/2000/svg" xmlns:xlink="http://www.w3.org/1999/xlink" version="1.1"><rect x="0" y="0" width="960" height="540" fill="#303030"></rect><defs><linearGradient id="grad1_0" x1="43.8%" y1="0%" x2="100%" y2="100%"><stop offset="14.444444444444446%" stop-color="#9fdcdf" stop-opacity="1"></stop><stop offset="85.55555555555554%" stop-color="#9fdcdf" stop-opacity="1"></stop></linearGradient></defs><defs><linearGradient id="grad1_1" x1="43.8%" y1="0%" x2="100%" y2="100%"><stop offset="14.444444444444446%" stop-color="#9fdcdf" stop-opacity="1"></stop><stop offset="85.55555555555554%" stop-color="#8ec1c3" stop-opacity="1"></stop></linearGradient></defs><defs><linearGradient id="grad1_2" x1="43.8%" y1="0%" x2="100%" y2="100%"><stop offset="14.444444444444446%" stop-color="#7ea7a9" stop-opacity="1"></stop><stop offset="85.55555555555554%" stop-color="#8ec1c3" stop-opacity="1"></stop></linearGradient></defs><defs><linearGradient id="grad1_3" x1="43.8%" y1="0%" x2="100%" y2="100%"><stop offset="14.444444444444446%" stop-color="#7ea7a9" stop-opacity="1"></stop><stop offset="85.55555555555554%" stop-color="#6e8d8f" stop-opacity="1"></stop></linearGradient></defs><defs><linearGradient id="grad1_4" x1="43.8%" y1="0%" x2="100%" y2="100%"><stop offset="14.444444444444446%" stop-color="#5e7475" stop-opacity="1"></stop><stop offset="85.55555555555554%" stop-color="#6e8d8f" stop-opacity="1"></stop></linearGradient></defs><defs><linearGradient id="grad1_5" x1="43.8%" y1="0%" x2="100%" y2="100%"><stop offset="14.444444444444446%" stop-color="#5e7475" stop-opacity="1"></stop><stop offset="85.55555555555554%" stop-color="#4e5d5d" stop-opacity="1"></stop></linearGradient></defs><defs><linearGradient id="grad1_6" x1="43.8%" y1="0%" x2="100%" y2="100%"><stop offset="14.444444444444446%" stop-color="#3f4646" stop-opacity="1"></stop><stop offset="85.55555555555554%" stop-color="#4e5d5d" stop-opacity="1"></stop></linearGradient></defs><defs><linearGradient id="grad1_7" x1="43.8%" y1="0%" x2="100%" y2="100%"><stop offset="14.444444444444446%" stop-color="#3f4646" stop-opacity="1"></stop><stop offset="85.55555555555554%" stop-color="#303030" stop-opacity="1"></stop></linearGradient></defs><defs><linearGradient id="grad2_0" x1="0%" y1="0%" x2="56.3%" y2="100%"><stop offset="14.444444444444446%" stop-color="#9fdcdf" stop-opacity="1"></stop><stop offset="85.55555555555554%" stop-color="#9fdcdf" stop-opacity="1"></stop></linearGradient></defs><defs><linearGradient id="grad2_1" x1="0%" y1="0%" x2="56.3%" y2="100%"><stop offset="14.444444444444446%" stop-color="#8ec1c3" stop-opacity="1"></stop><stop offset="85.55555555555554%" stop-color="#9fdcdf" stop-opacity="1"></stop></linearGradient></defs><defs><linearGradient id="grad2_2" x1="0%" y1="0%" x2="56.3%" y2="100%"><stop offset="14.444444444444446%" stop-color="#8ec1c3" stop-opacity="1"></stop><stop offset="85.55555555555554%" stop-color="#7ea7a9" stop-opacity="1"></stop></linearGradient></defs><defs><linearGradient id="grad2_3" x1="0%" y1="0%" x2="56.3%" y2="100%"><stop offset="14.444444444444446%" stop-color="#6e8d8f" stop-opacity="1"></stop><stop offset="85.55555555555554%" stop-color="#7ea7a9" stop-opacity="1"></stop></linearGradient></defs><defs><linearGradient id="grad2_4" x1="0%" y1="0%" x2="56.3%" y2="100%"><stop offset="14.444444444444446%" stop-color="#6e8d8f" stop-opacity="1"></stop><stop offset="85.55555555555554%" stop-color="#5e7475" stop-opacity="1"></stop></linearGradient></defs><defs><linearGradient id="grad2_5" x1="0%" y1="0%" x2="56.3%" y2="100%"><stop offset="14.444444444444446%" stop-color="#4e5d5d" stop-opacity="1"></stop><stop offset="85.55555555555554%" stop-color="#5e7475" stop-opacity="1"></stop></linearGradient></defs><defs><linearGradient id="grad2_6" x1="0%" y1="0%" x2="56.3%" y2="100%"><stop offset="14.444444444444446%" stop-color="#4e5d5d" stop-opacity="1"></stop><stop offset="85.55555555555554%" stop-color="#3f4646" stop-opacity="1"></stop></linearGradient></defs><defs><linearGradient id="grad2_7" x1="0%" y1="0%" x2="56.3%" y2="100%"><stop offset="14.444444444444446%" stop-color="#303030" stop-opacity="1"></stop><stop offset="85.55555555555554%" stop-color="#3f4646" stop-opacity="1"></stop></linearGradient></defs><g transform="translate(960, 0)"><path d="M0 513C-55.8 511.9 -111.7 510.9 -158.5 487.9C-205.4 464.9 -243.2 420 -275.7 379.4C-308.1 338.9 -335.2 302.6 -366.5 266.3C-397.8 229.9 -433.3 193.4 -458.4 148.9C-483.5 104.5 -498.3 52.3 -513 0L0 0Z" fill="#373b3b"></path><path d="M0 448.9C-48.9 447.9 -97.7 447 -138.7 426.9C-179.7 406.8 -212.8 367.5 -241.2 332C-269.6 296.5 -293.3 264.8 -320.7 233C-348.1 201.2 -379.1 169.2 -401.1 130.3C-423.1 91.5 -436 45.7 -448.9 0L0 0Z" fill="#475151"></path><path d="M0 384.8C-41.9 384 -83.8 383.2 -118.9 365.9C-154 348.7 -182.4 315 -206.8 284.6C-231.1 254.1 -251.4 227 -274.9 199.7C-298.3 172.4 -325 145 -343.8 111.7C-362.6 78.4 -373.7 39.2 -384.7 0L0 0Z" fill="#566869"></path><path d="M0 320.6C-34.9 320 -69.8 319.3 -99.1 304.9C-128.4 290.6 -152 262.5 -172.3 237.1C-192.6 211.8 -209.5 189.2 -229.1 166.4C-248.6 143.7 -270.8 120.8 -286.5 93.1C-302.2 65.3 -311.4 32.7 -320.6 0L0 0Z" fill="#668182"></path><path d="M0 256.5C-27.9 256 -55.8 255.4 -79.3 243.9C-102.7 232.5 -121.6 210 -137.8 189.7C-154.1 169.4 -167.6 151.3 -183.2 133.1C-198.9 114.9 -216.6 96.7 -229.2 74.5C-241.8 52.3 -249.1 26.1 -256.5 0L0 0Z" fill="#769a9c"></path><path d="M0 192.4C-20.9 192 -41.9 191.6 -59.4 183C-77 174.3 -91.2 157.5 -103.4 142.3C-115.5 127.1 -125.7 113.5 -137.4 99.9C-149.2 86.2 -162.5 72.5 -171.9 55.9C-181.3 39.2 -186.8 19.6 -192.4 0L0 0Z" fill="#86b4b6"></path><path d="M0 128.3C-14 128 -27.9 127.7 -39.6 122C-51.3 116.2 -60.8 105 -68.9 94.9C-77 84.7 -83.8 75.7 -91.6 66.6C-99.4 57.5 -108.3 48.3 -114.6 37.2C-120.9 26.1 -124.6 13.1 -128.2 0L0 0Z" fill="#97ced1"></path><path d="M0 64.1C-7 64 -14 63.9 -19.8 61C-25.7 58.1 -30.4 52.5 -34.5 47.4C-38.5 42.4 -41.9 37.8 -45.8 33.3C-49.7 28.7 -54.2 24.2 -57.3 18.6C-60.4 13.1 -62.3 6.5 -64.1 0L0 0Z" fill="#9fdcdf"></path></g><g transform="translate(0, 540)"><path d="M0 -513C53.9 -508.9 107.8 -504.9 158.5 -487.9C209.3 -470.9 256.8 -441 293.9 -404.5C331 -368 357.6 -324.8 390.8 -283.9C423.9 -243 463.6 -204.5 485 -157.6C506.5 -110.7 509.8 -55.3 513 0L0 0Z" fill="#373b3b"></path><path d="M0 -448.9C47.2 -445.3 94.3 -441.8 138.7 -426.9C183.1 -412.1 224.7 -385.9 257.2 -353.9C289.6 -322 312.9 -284.2 341.9 -248.4C370.9 -212.7 405.6 -179 424.4 -137.9C443.2 -96.8 446 -48.4 448.9 0L0 0Z" fill="#475151"></path><path d="M0 -384.7C40.4 -381.7 80.8 -378.6 118.9 -365.9C156.9 -353.2 192.6 -330.8 220.4 -303.4C248.2 -276 268.2 -243.6 293.1 -212.9C317.9 -182.3 347.7 -153.4 363.8 -118.2C379.9 -83 382.3 -41.5 384.8 0L0 0Z" fill="#566869"></path><path d="M0 -320.6C33.7 -318.1 67.4 -315.5 99.1 -304.9C130.8 -294.3 160.5 -275.7 183.7 -252.8C206.9 -230 223.5 -203 244.2 -177.4C264.9 -151.9 289.7 -127.8 303.1 -98.5C316.6 -69.2 318.6 -34.6 320.6 0L0 0Z" fill="#668182"></path><path d="M0 -256.5C26.9 -254.5 53.9 -252.4 79.3 -243.9C104.6 -235.5 128.4 -220.5 146.9 -202.3C165.5 -184 178.8 -162.4 195.4 -142C212 -121.5 231.8 -102.3 242.5 -78.8C253.3 -55.3 254.9 -27.7 256.5 0L0 0Z" fill="#769a9c"></path><path d="M0 -192.4C20.2 -190.8 40.4 -189.3 59.4 -183C78.5 -176.6 96.3 -165.4 110.2 -151.7C124.1 -138 134.1 -121.8 146.5 -106.5C159 -91.1 173.8 -76.7 181.9 -59.1C189.9 -41.5 191.2 -20.8 192.4 0L0 0Z" fill="#86b4b6"></path><path d="M0 -128.2C13.5 -127.2 26.9 -126.2 39.6 -122C52.3 -117.7 64.2 -110.3 73.5 -101.1C82.7 -92 89.4 -81.2 97.7 -71C106 -60.8 115.9 -51.1 121.3 -39.4C126.6 -27.7 127.4 -13.8 128.3 0L0 0Z" fill="#97ced1"></path><path d="M0 -64.1C6.7 -63.6 13.5 -63.1 19.8 -61C26.2 -58.9 32.1 -55.1 36.7 -50.6C41.4 -46 44.7 -40.6 48.8 -35.5C53 -30.4 57.9 -25.6 60.6 -19.7C63.3 -13.8 63.7 -6.9 64.1 0L0 0Z" fill="#9fdcdf"></path></g></svg>